<svg id="Layer_2" data-name="Layer 2" xmlns="http://www.w3.org/2000/svg" viewBox="0 0 555.61 122.36"><defs><style>.cls-1{fill:#fff;}</style></defs><g id="Layer_1-2" data-name="Layer 1-2"><g id="Layer_1-2-2" data-name="Layer 1-2"><path class="cls-1" d="M162.81,65.31H113.36l5.2-18.57h32a3.59,3.59,0,0,0,3.65-2.85l2.32-8.31c.51-1.83-.23-2.85-2.05-2.85h-32l4.91-17.54h49.45a3.59,3.59,0,0,0,3.65-2.85l2.64-9.45c.51-1.83-.23-2.85-2-2.85H118.75a3.59,3.59,0,0,0-3.65,2.85L94.2,77.64c-.51,1.83.23,2.85,2,2.85h62.33a3.59,3.59,0,0,0,3.65-2.85l2.64-9.45c.51-1.83-.23-2.85-2.05-2.85l0,0Z" transform="translate(0 -0.01)"/><path class="cls-1" d="M246.29,27.13s7.7-3.65,10.44-5.27c1.56-.93,2.95-1.23,3.37-3.17C263.07,10.2,258,0,240,0H219.12c-19.82,0-29.6,8.43-33.89,23.81-4.21,15,1.15,20.74,18.32,22.1l24.86,1.94c7.48.57,10,2.28,8.18,8.66-1.86,6.6-5.54,8.78-14.18,8.78H200.07c-7.41,0-9.79-2.51-8.62-9.12.39-1.83-.23-2.85-2-2.85,0,0-6.69,2.75-9.16,3.91-1.65.79-3.14,1-3.56,3-3.7,16.07,1,20.23,19.15,20.23h22.45c19.94,0,29.71-8.43,34-23.81,4.18-14.93-1.43-21-18.36-22.34l-24.86-1.94c-7.48-.57-10-2.16-8.24-8.43,1.88-6.72,5.54-8.78,14.3-8.78h20.63c7.29,0,9.67,2.51,8.5,9.12-.39,1.83.23,2.85,2.05,2.85h0Z" transform="translate(0 -0.01)"/><path class="cls-1" d="M293.07,0h-10a3.59,3.59,0,0,0-3.65,2.85L262.67,62.7c-.51,1.83-.76,17.75,1.66,17.75h.48c2.05,0,13.07-15.93,13.58-17.75L295.14,2.86C295.65,1,294.91,0,293.09,0h0Z" transform="translate(0 -0.01)"/><path class="cls-1" d="M375.31,35.57H342.72a3.59,3.59,0,0,0-3.65,2.85l-2.29,8.21c-.51,1.83.23,2.85,2.05,2.85h19.6l-1.08,3.87c-2.75,9.8-6.88,12-14.51,12H316.63c-7.64,0-10.56-2.16-7.82-12l7.3-26.09c2.78-9.92,6.69-12.08,14.55-12.08h26.21c7.07,0,9.89,1.71,8.5,9.12-.39,1.83.23,2.85,2.05,2.85,0,0,6.16-3,9.7-4.75,1.64-.82,4.09-1.5,4.51-3.43C383.24,11,378.88,0,361.11,0H334.9c-18.92,0-30,10.71-34.78,27.8l-7,25c-4.75,17,.35,27.68,19.27,27.68h26.21c18.92,0,30-10.71,34.75-27.68l4-14.36c.51-1.83-.23-2.85-2.05-2.85h0Z" transform="translate(0 -0.01)"/><path class="cls-1" d="M474.81,0H464.67A4,4,0,0,0,461,2.86L447,53c-.34,1.23-2,1.77-2.53.82L417.14,1.72A3.13,3.13,0,0,0,414.09,0H403.84a4,4,0,0,0-3.65,2.85l-20.9,74.75a2.09,2.09,0,0,0,2,2.85h10.14a4,4,0,0,0,3.65-2.85l13.92-49.78c.34-1.23,2-1.77,2.53-.82L439,78.75a3.13,3.13,0,0,0,3.05,1.71h10.25A4,4,0,0,0,456,77.61L476.85,2.86A2.09,2.09,0,0,0,474.8,0Z" transform="translate(0 -0.01)"/><path class="cls-1" d="M76.3,0h-46a4,4,0,0,0-3.65,2.85L21,21.82a2.9,2.9,0,0,0,2.59,3.77l9.33.61a2.91,2.91,0,0,0,3-2.05l2.76-9,34.5.06c8.88,0,12.37,2.61,8.87,15.15L76.39,50.49C72.88,63,67.77,65.42,59.11,65.42l-34.1,0,4.41-14.64a1.72,1.72,0,0,0-2.21-2.13L16.27,52.43a6.38,6.38,0,0,0-4,4.13L5.8,77.6a2.09,2.09,0,0,0,2.05,2.85H56.73c18.8,0,29.6-9.69,35.21-29.74L97.68,30.2C103.31,10,95.1,0,76.3,0Z" transform="translate(0 -0.01)"/><path class="cls-1" d="M552.8,77.16,537.68,2.07A2.43,2.43,0,0,0,535,0H522.87A4.69,4.69,0,0,0,519,2.07L461.77,77.16c-1.45,1.94-.92,3.3,1.24,3.3h11.51a5.07,5.07,0,0,0,4-2.16L521,21.18c1.36-1.83,3.94-1.83,4.28,0l10.15,57.1c.26,1.48,1.21,2.16,2.82,2.16h11.51c2.16,0,3.46-1.37,3.08-3.3h0Z" transform="translate(0 -0.01)"/></g><path class="cls-1" d="M1.16,112.36l3.42-9c2.51-6.62,6.27-10,13.55-10h9.25c7,0,8.45,3,6.27,9.16a.89.89,0,0,1-.85.62H31.41c-.37,0-.54-.21-.38-.62,1.79-5,.54-6.62-4.59-6.62H17.19c-5.3,0-7.84,1.81-10,7.44L3.77,112.4c-2.13,5.59-1,7.4,4.34,7.4h9.25c5.25,0,7.79-1.81,9.92-7.4l.76-2H17.47c-.37,0-.53-.25-.38-.62l.48-1.28a.94.94,0,0,1,.85-.62H31c.37,0,.53.25.38.62l-1.47,3.86c-2.5,6.58-6.3,10-13.53,10H7.14c-7.28,0-8.44-3.41-5.94-10h0Z" transform="translate(0 -0.01)"/><path class="cls-1" d="M59.48,121.9l-.84-5.46H37.18l-5,5.46a1.21,1.21,0,0,1-.91.46H29.64c-.46,0-.5-.32-.13-.73L55,93.8a1.21,1.21,0,0,1,.91-.46h1.64c.32,0,.53.12.57.46l4.23,27.83a.64.64,0,0,1-.69.73h-1.6C59.73,122.36,59.52,122.24,59.48,121.9Zm-1.2-7.85L55.59,96.33,39.37,114.05Z" transform="translate(0 -0.01)"/><path class="cls-1" d="M67.28,121.72,77.82,93.93a.94.94,0,0,1,.85-.62H80.4c.32,0,.53.12.59.41l5.23,20.55,20.87-20.55a1.2,1.2,0,0,1,.9-.41h1.64c.37,0,.53.25.38.62L99.47,121.72a.94.94,0,0,1-.85.62H97.23c-.37,0-.53-.25-.38-.62l9.12-24-19.3,18.91a1.2,1.2,0,0,1-.9.41H84.58c-.32,0-.53-.12-.59-.41L79,97.59l-9.16,24.13a.94.94,0,0,1-.85.62H67.68c-.37,0-.53-.25-.38-.62h0Z" transform="translate(0 -0.01)"/><path class="cls-1" d="M106.6,121.72l10.54-27.79a.94.94,0,0,1,.85-.62H141.3c.37,0,.53.25.38.62l-.5,1.32a.94.94,0,0,1-.85.62H119l-3.92,10.32h15c.37,0,.53.25.38.62l-.48,1.28a.94.94,0,0,1-.85.62H114.13l-4.21,11.1h21.33c.37,0,.53.25.38.62l-.5,1.32a.94.94,0,0,1-.85.62H107c-.37,0-.53-.25-.38-.62h0Z" transform="translate(0 -0.01)"/><path class="cls-1" d="M480.78,121.9l-.84-5.46H458.48l-5,5.46a1.21,1.21,0,0,1-.91.46h-1.64c-.46,0-.48-.32-.13-.73L476.29,93.8a1.21,1.21,0,0,1,.91-.46h1.64c.32,0,.53.12.57.46l4.23,27.83a.64.64,0,0,1-.69.73h-1.6c-.32,0-.53-.12-.57-.46Zm-1.21-7.85-2.69-17.72-16.22,17.72Z" transform="translate(0 -0.01)"/><path class="cls-1" d="M511.81,112.61l2.91,9c.12.46-.16.73-.65.73h-1.69a.61.61,0,0,1-.65-.37l-2.86-9.13H494.53l-3.38,8.88a.94.94,0,0,1-.85.62H489c-.37,0-.53-.25-.38-.62l10.54-27.79a.94.94,0,0,1,.85-.62h14.88c8.84,0,10.29,2.88,7.72,9.66l-.12.32c-2.1,5.55-4.84,8.43-10.64,9.29h0Zm8.13-9.63c2.17-5.71.76-7.1-6.14-7.1H501l-5.48,14.43h12.83c6.9,0,9.35-1.35,11.49-7l.12-.32h0Z" transform="translate(0 -0.01)"/><path class="cls-1" d="M531,121.72l9.82-25.85H529.92c-.37,0-.53-.25-.38-.62l.5-1.32a.94.94,0,0,1,.85-.62h24.29c.37,0,.53.25.38.62l-.5,1.32a.94.94,0,0,1-.85.62h-10.8l-9.82,25.85a.94.94,0,0,1-.85.62h-1.39c-.37,0-.53-.25-.38-.62h0Z" transform="translate(0 -0.01)"/></g></svg>